<mxfile host="www.draw.io" modified="2019-10-28T04:18:09.654Z" agent="Mozilla/5.0 (X11; Linux x86_64) AppleWebKit/537.36 (KHTML, like Gecko) Chrome/76.0.3809.87 Safari/537.36" etag="_W1fSrA3M1SRj5yAj4GV" version="12.1.7" type="github" pages="1">
  <diagram id="JcPJvcP8vzCySAAviPYO" name="Page-1">
    <mxGraphModel dx="1173" dy="615" grid="1" gridSize="10" guides="1" tooltips="1" connect="1" arrows="1" fold="1" page="1" pageScale="1" pageWidth="827" pageHeight="1169" math="0" shadow="0">
      <root>
        <mxCell id="0"/>
        <mxCell id="1" parent="0"/>
        <mxCell id="76PlY3qgO6dOQQKfIqFN-36" value="" style="rounded=1;whiteSpace=wrap;html=1;opacity=80;align=left;fillColor=#d0cee2;strokeColor=#56517e;shadow=0;comic=1;" parent="1" vertex="1">
          <mxGeometry x="168.5" y="130" width="170" height="180" as="geometry"/>
        </mxCell>
        <mxCell id="76PlY3qgO6dOQQKfIqFN-37" value="ldap" style="rounded=1;whiteSpace=wrap;html=1;fillColor=#d0cee2;strokeColor=#56517e;shadow=0;comic=1;" parent="1" vertex="1">
          <mxGeometry x="196.5" y="143" width="110" height="40" as="geometry"/>
        </mxCell>
        <mxCell id="76PlY3qgO6dOQQKfIqFN-38" value="wx" style="rounded=1;whiteSpace=wrap;html=1;fillColor=#d0cee2;strokeColor=#56517e;shadow=0;comic=1;" parent="1" vertex="1">
          <mxGeometry x="196.5" y="203" width="110" height="40" as="geometry"/>
        </mxCell>
        <mxCell id="76PlY3qgO6dOQQKfIqFN-39" value="AD" style="rounded=1;whiteSpace=wrap;html=1;fillColor=#d0cee2;strokeColor=#56517e;shadow=0;comic=1;" parent="1" vertex="1">
          <mxGeometry x="196.5" y="258" width="110" height="40" as="geometry"/>
        </mxCell>
        <mxCell id="76PlY3qgO6dOQQKfIqFN-4" value="&lt;b&gt;raging-hub&lt;br&gt;&lt;/b&gt;" style="rounded=0;whiteSpace=wrap;html=1;comic=1;verticalAlign=top;align=left;fillColor=#f5f5f5;strokeColor=#666666;fontColor=#333333;" parent="1" vertex="1">
          <mxGeometry x="417" y="50" width="532" height="260" as="geometry"/>
        </mxCell>
        <mxCell id="76PlY3qgO6dOQQKfIqFN-3" value="&lt;b&gt;redis&lt;/b&gt;" style="rounded=1;whiteSpace=wrap;html=1;comic=1;verticalAlign=top;align=left;fillColor=#f5f5f5;strokeColor=#666666;gradientColor=#b3b3b3;opacity=40;" parent="1" vertex="1">
          <mxGeometry x="741.5" y="430" width="770" height="120" as="geometry"/>
        </mxCell>
        <mxCell id="76PlY3qgO6dOQQKfIqFN-5" value="&lt;b&gt;middleware&lt;/b&gt;" style="rounded=1;whiteSpace=wrap;html=1;comic=1;verticalAlign=top;align=left;fillColor=#f8cecc;strokeColor=#b85450;opacity=50;" parent="1" vertex="1">
          <mxGeometry x="748.5" y="75" width="190" height="135" as="geometry"/>
        </mxCell>
        <mxCell id="76PlY3qgO6dOQQKfIqFN-29" value="oauth2 server" style="rounded=1;whiteSpace=wrap;html=1;fillColor=#b1ddf0;strokeColor=#10739e;shadow=0;comic=1;fontStyle=1" parent="1" vertex="1">
          <mxGeometry x="437" y="75" width="302" height="40" as="geometry"/>
        </mxCell>
        <mxCell id="76PlY3qgO6dOQQKfIqFN-9" value="&lt;b&gt;auth&lt;br&gt;sessionToken&lt;/b&gt;" style="rounded=1;whiteSpace=wrap;html=1;comic=1;verticalAlign=middle;align=center;fillColor=#f8cecc;strokeColor=#b85450;opacity=50;" parent="1" vertex="1">
          <mxGeometry x="806.5" y="111" width="90" height="50" as="geometry"/>
        </mxCell>
        <mxCell id="76PlY3qgO6dOQQKfIqFN-32" value="interface" style="rounded=1;whiteSpace=wrap;html=1;verticalAlign=top;align=left;fillColor=#fff2cc;strokeColor=#d6b656;shadow=0;comic=1;fontStyle=1" parent="1" vertex="1">
          <mxGeometry x="437" y="218" width="302" height="81" as="geometry"/>
        </mxCell>
        <mxCell id="76PlY3qgO6dOQQKfIqFN-33" value="userInfo" style="rounded=0;whiteSpace=wrap;html=1;fillColor=#fad7ac;strokeColor=#b46504;shadow=0;comic=1;opacity=50;" parent="1" vertex="1">
          <mxGeometry x="539.5" y="245" width="59" height="40" as="geometry"/>
        </mxCell>
        <mxCell id="76PlY3qgO6dOQQKfIqFN-34" value="uid getter" style="rounded=0;whiteSpace=wrap;html=1;fillColor=#fad7ac;strokeColor=#b46504;shadow=0;comic=1;opacity=50;" parent="1" vertex="1">
          <mxGeometry x="611.5" y="245" width="82" height="40" as="geometry"/>
        </mxCell>
        <mxCell id="76PlY3qgO6dOQQKfIqFN-35" value="login" style="rounded=0;whiteSpace=wrap;html=1;fillColor=#fad7ac;strokeColor=#b46504;shadow=0;comic=1;opacity=50;" parent="1" vertex="1">
          <mxGeometry x="471.5" y="245" width="57" height="40" as="geometry"/>
        </mxCell>
        <mxCell id="76PlY3qgO6dOQQKfIqFN-40" value="&lt;span style=&quot;font-size: 20px&quot;&gt;R&lt;/span&gt;" style="ellipse;html=1;aspect=fixed;fillColor=#dae8fc;strokeColor=#6c8ebf;opacity=80;shadow=0;labelBorderColor=none;labelBackgroundColor=none;whiteSpace=wrap;" parent="1" vertex="1">
          <mxGeometry x="358.5" y="227" width="56" height="56" as="geometry"/>
        </mxCell>
        <mxCell id="76PlY3qgO6dOQQKfIqFN-41" style="edgeStyle=orthogonalEdgeStyle;curved=1;rounded=0;comic=1;orthogonalLoop=1;jettySize=auto;html=1;" parent="1" source="76PlY3qgO6dOQQKfIqFN-32" target="76PlY3qgO6dOQQKfIqFN-37" edge="1">
          <mxGeometry relative="1" as="geometry">
            <Array as="points">
              <mxPoint x="378.5" y="258"/>
              <mxPoint x="378.5" y="168"/>
            </Array>
          </mxGeometry>
        </mxCell>
        <mxCell id="76PlY3qgO6dOQQKfIqFN-42" style="edgeStyle=orthogonalEdgeStyle;curved=1;rounded=0;comic=1;orthogonalLoop=1;jettySize=auto;html=1;" parent="1" source="76PlY3qgO6dOQQKfIqFN-32" target="76PlY3qgO6dOQQKfIqFN-38" edge="1">
          <mxGeometry relative="1" as="geometry">
            <Array as="points">
              <mxPoint x="358.5" y="258"/>
              <mxPoint x="358.5" y="223"/>
            </Array>
          </mxGeometry>
        </mxCell>
        <mxCell id="76PlY3qgO6dOQQKfIqFN-43" style="edgeStyle=orthogonalEdgeStyle;curved=1;rounded=0;comic=1;orthogonalLoop=1;jettySize=auto;html=1;" parent="1" source="76PlY3qgO6dOQQKfIqFN-32" target="76PlY3qgO6dOQQKfIqFN-39" edge="1">
          <mxGeometry relative="1" as="geometry"/>
        </mxCell>
        <mxCell id="76PlY3qgO6dOQQKfIqFN-44" value="Application manager" style="rounded=1;whiteSpace=wrap;html=1;verticalAlign=top;align=left;fillColor=#dae8fc;strokeColor=#6c8ebf;shadow=0;fontStyle=1" parent="1" vertex="1">
          <mxGeometry x="438" y="131" width="180" height="80" as="geometry"/>
        </mxCell>
        <mxCell id="76PlY3qgO6dOQQKfIqFN-45" value="scope manager" style="rounded=1;whiteSpace=wrap;html=1;fillColor=#cce5ff;strokeColor=#36393d;shadow=0;comic=1;" parent="1" vertex="1">
          <mxGeometry x="445" y="161" width="80" height="40" as="geometry"/>
        </mxCell>
        <mxCell id="76PlY3qgO6dOQQKfIqFN-72" style="edgeStyle=orthogonalEdgeStyle;curved=1;rounded=0;comic=1;orthogonalLoop=1;jettySize=auto;html=1;exitX=1;exitY=0.75;exitDx=0;exitDy=0;entryX=0.25;entryY=1;entryDx=0;entryDy=0;startArrow=classic;startFill=1;endArrow=none;endFill=0;" parent="1" source="76PlY3qgO6dOQQKfIqFN-47" target="76PlY3qgO6dOQQKfIqFN-9" edge="1">
          <mxGeometry relative="1" as="geometry"/>
        </mxCell>
        <mxCell id="76PlY3qgO6dOQQKfIqFN-73" style="edgeStyle=orthogonalEdgeStyle;curved=1;rounded=0;comic=1;orthogonalLoop=1;jettySize=auto;html=1;exitX=0;exitY=0.25;exitDx=0;exitDy=0;entryX=0.5;entryY=1;entryDx=0;entryDy=0;startArrow=classic;startFill=1;endArrow=none;endFill=0;" parent="1" source="76PlY3qgO6dOQQKfIqFN-47" target="76PlY3qgO6dOQQKfIqFN-29" edge="1">
          <mxGeometry relative="1" as="geometry"/>
        </mxCell>
        <mxCell id="76PlY3qgO6dOQQKfIqFN-74" style="edgeStyle=orthogonalEdgeStyle;curved=1;rounded=0;comic=1;orthogonalLoop=1;jettySize=auto;html=1;exitX=0.25;exitY=1;exitDx=0;exitDy=0;entryX=0.5;entryY=0;entryDx=0;entryDy=0;startArrow=none;startFill=0;endArrow=classic;endFill=1;" parent="1" source="76PlY3qgO6dOQQKfIqFN-47" target="76PlY3qgO6dOQQKfIqFN-6" edge="1">
          <mxGeometry relative="1" as="geometry"/>
        </mxCell>
        <mxCell id="76PlY3qgO6dOQQKfIqFN-75" style="edgeStyle=orthogonalEdgeStyle;curved=1;rounded=0;comic=1;orthogonalLoop=1;jettySize=auto;html=1;exitX=0.5;exitY=1;exitDx=0;exitDy=0;startArrow=none;startFill=0;endArrow=classic;endFill=1;" parent="1" source="76PlY3qgO6dOQQKfIqFN-47" target="76PlY3qgO6dOQQKfIqFN-7" edge="1">
          <mxGeometry relative="1" as="geometry"/>
        </mxCell>
        <mxCell id="76PlY3qgO6dOQQKfIqFN-47" value="token manager" style="rounded=1;whiteSpace=wrap;html=1;fillColor=#b0e3e6;strokeColor=#0e8088;shadow=0;comic=1;align=left;verticalAlign=top;fontStyle=1" parent="1" vertex="1">
          <mxGeometry x="627" y="131" width="112" height="79" as="geometry"/>
        </mxCell>
        <mxCell id="76PlY3qgO6dOQQKfIqFN-49" value="&lt;b&gt;static&lt;/b&gt;" style="rounded=1;whiteSpace=wrap;html=1;comic=1;verticalAlign=top;align=left;fillColor=#76608a;strokeColor=#432D57;fontColor=#ffffff;opacity=40;" parent="1" vertex="1">
          <mxGeometry x="748.5" y="220" width="100" height="80" as="geometry"/>
        </mxCell>
        <mxCell id="76PlY3qgO6dOQQKfIqFN-54" value="&lt;b&gt;ui-pages&lt;/b&gt;" style="rounded=1;whiteSpace=wrap;html=1;comic=1;verticalAlign=middle;align=center;fillColor=#76608a;strokeColor=#432D57;fontColor=#ffffff;opacity=30;" parent="1" vertex="1">
          <mxGeometry x="754.5" y="243" width="90" height="50" as="geometry"/>
        </mxCell>
        <mxCell id="76PlY3qgO6dOQQKfIqFN-55" value="uaa-fronted-proxy" style="rounded=0;whiteSpace=wrap;html=1;verticalAlign=top;comic=1;fillColor=#eeeeee;strokeColor=#36393d;align=left;fontSize=14;fontStyle=1" parent="1" vertex="1">
          <mxGeometry x="1060" y="55" width="480" height="250" as="geometry"/>
        </mxCell>
        <mxCell id="76PlY3qgO6dOQQKfIqFN-56" value="oauth2 client" style="rounded=1;whiteSpace=wrap;html=1;comic=1;fillColor=#fad7ac;strokeColor=#b46504;opacity=70;" parent="1" vertex="1">
          <mxGeometry x="1230" y="89" width="106" height="91" as="geometry"/>
        </mxCell>
        <mxCell id="DjlRrPvjS2F6TvQDkWPC-1" style="edgeStyle=orthogonalEdgeStyle;rounded=0;orthogonalLoop=1;jettySize=auto;html=1;exitX=1;exitY=0.25;exitDx=0;exitDy=0;entryX=0;entryY=0.25;entryDx=0;entryDy=0;curved=1;" parent="1" source="76PlY3qgO6dOQQKfIqFN-58" target="76PlY3qgO6dOQQKfIqFN-61" edge="1">
          <mxGeometry relative="1" as="geometry"/>
        </mxCell>
        <mxCell id="76PlY3qgO6dOQQKfIqFN-58" value="proxy" style="rounded=1;whiteSpace=wrap;html=1;comic=1;fillColor=#e1d5e7;strokeColor=#9673a6;align=left;verticalAlign=top;fontStyle=1" parent="1" vertex="1">
          <mxGeometry x="1439.5" y="89" width="88" height="205" as="geometry"/>
        </mxCell>
        <mxCell id="76PlY3qgO6dOQQKfIqFN-102" value="存取用户信息" style="edgeStyle=orthogonalEdgeStyle;curved=1;rounded=0;comic=1;orthogonalLoop=1;jettySize=auto;html=1;exitX=0.25;exitY=1;exitDx=0;exitDy=0;startArrow=none;startFill=0;endArrow=classic;endFill=1;" parent="1" source="76PlY3qgO6dOQQKfIqFN-59" target="76PlY3qgO6dOQQKfIqFN-98" edge="1">
          <mxGeometry x="-0.2857" y="-15" relative="1" as="geometry">
            <mxPoint as="offset"/>
          </mxGeometry>
        </mxCell>
        <mxCell id="76PlY3qgO6dOQQKfIqFN-103" value="存取" style="edgeStyle=orthogonalEdgeStyle;curved=1;rounded=0;comic=1;orthogonalLoop=1;jettySize=auto;html=1;exitX=0.75;exitY=1;exitDx=0;exitDy=0;entryX=0.75;entryY=0;entryDx=0;entryDy=0;startArrow=none;startFill=0;endArrow=classic;endFill=1;" parent="1" source="76PlY3qgO6dOQQKfIqFN-59" target="76PlY3qgO6dOQQKfIqFN-97" edge="1">
          <mxGeometry relative="1" as="geometry"/>
        </mxCell>
        <mxCell id="76PlY3qgO6dOQQKfIqFN-59" value="user manager" style="rounded=1;whiteSpace=wrap;html=1;comic=1;fillColor=#d5e8d4;strokeColor=#82b366;align=center;verticalAlign=middle;fontStyle=1" parent="1" vertex="1">
          <mxGeometry x="1344" y="89" width="88" height="205" as="geometry"/>
        </mxCell>
        <mxCell id="76PlY3qgO6dOQQKfIqFN-61" value="third-apps" style="rounded=1;whiteSpace=wrap;html=1;opacity=80;align=center;fillColor=#d0cee2;strokeColor=#56517e;shadow=0;comic=1;fontColor=#000000;verticalAlign=top;fontSize=14;fontStyle=1" parent="1" vertex="1">
          <mxGeometry x="1635" y="99" width="160" height="184" as="geometry"/>
        </mxCell>
        <mxCell id="76PlY3qgO6dOQQKfIqFN-62" value="gitlab" style="rounded=1;whiteSpace=wrap;html=1;fillColor=#d0cee2;strokeColor=#56517e;shadow=0;comic=1;fontStyle=0" parent="1" vertex="1">
          <mxGeometry x="1703" y="144" width="70" height="30" as="geometry"/>
        </mxCell>
        <mxCell id="76PlY3qgO6dOQQKfIqFN-63" value="rancher" style="rounded=1;whiteSpace=wrap;html=1;fillColor=#d0cee2;strokeColor=#56517e;shadow=0;comic=1;fontStyle=0" parent="1" vertex="1">
          <mxGeometry x="1703" y="190" width="70" height="30" as="geometry"/>
        </mxCell>
        <mxCell id="76PlY3qgO6dOQQKfIqFN-64" value="..." style="rounded=1;whiteSpace=wrap;html=1;fillColor=#d0cee2;strokeColor=#56517e;shadow=0;comic=1;fontStyle=0" parent="1" vertex="1">
          <mxGeometry x="1705" y="236" width="70" height="30" as="geometry"/>
        </mxCell>
        <mxCell id="76PlY3qgO6dOQQKfIqFN-78" value="db1" style="rounded=1;whiteSpace=wrap;html=1;comic=1;verticalAlign=top;align=left;fillColor=#dae8fc;strokeColor=#6c8ebf;opacity=40;" parent="1" vertex="1">
          <mxGeometry x="754.5" y="460" width="255" height="80" as="geometry"/>
        </mxCell>
        <mxCell id="76PlY3qgO6dOQQKfIqFN-79" value="db2" style="rounded=1;whiteSpace=wrap;html=1;comic=1;verticalAlign=top;align=left;fillColor=#ffe6cc;strokeColor=#d79b00;opacity=40;" parent="1" vertex="1">
          <mxGeometry x="1055.5" y="440" width="406" height="100" as="geometry"/>
        </mxCell>
        <mxCell id="76PlY3qgO6dOQQKfIqFN-77" value="&lt;b&gt;accessToken&lt;/b&gt;" style="rounded=1;whiteSpace=wrap;html=1;comic=1;verticalAlign=middle;align=center;fillColor=#fad7ac;strokeColor=#b46504;opacity=50;" parent="1" vertex="1">
          <mxGeometry x="1158.5" y="500" width="105" height="40" as="geometry"/>
        </mxCell>
        <mxCell id="76PlY3qgO6dOQQKfIqFN-6" value="&lt;b&gt;sessionToken&lt;/b&gt;" style="rounded=1;whiteSpace=wrap;html=1;comic=1;verticalAlign=middle;align=center;fillColor=#dae8fc;strokeColor=#6c8ebf;" parent="1" vertex="1">
          <mxGeometry x="761.5" y="490" width="110" height="40" as="geometry"/>
        </mxCell>
        <mxCell id="76PlY3qgO6dOQQKfIqFN-7" value="&lt;b&gt;accessToken&lt;/b&gt;" style="rounded=1;whiteSpace=wrap;html=1;comic=1;verticalAlign=middle;align=center;fillColor=#dae8fc;strokeColor=#6c8ebf;" parent="1" vertex="1">
          <mxGeometry x="891.5" y="490" width="110" height="40" as="geometry"/>
        </mxCell>
        <mxCell id="76PlY3qgO6dOQQKfIqFN-80" value="&lt;b&gt;sessionToken&lt;/b&gt;" style="rounded=1;whiteSpace=wrap;html=1;comic=1;verticalAlign=middle;align=center;fillColor=#bac8d3;strokeColor=#23445d;opacity=70;" parent="1" vertex="1">
          <mxGeometry x="1100" y="453" width="110" height="40" as="geometry"/>
        </mxCell>
        <mxCell id="76PlY3qgO6dOQQKfIqFN-84" value="ui-proxy" style="rounded=1;whiteSpace=wrap;html=1;comic=1;fillColor=#e1d5e7;strokeColor=#9673a6;align=center;verticalAlign=middle;fontStyle=1" parent="1" vertex="1">
          <mxGeometry x="1447" y="122" width="73" height="40" as="geometry"/>
        </mxCell>
        <mxCell id="76PlY3qgO6dOQQKfIqFN-85" value="api-proxy" style="rounded=1;whiteSpace=wrap;html=1;comic=1;fillColor=#e1d5e7;strokeColor=#9673a6;align=center;verticalAlign=middle;fontStyle=1" parent="1" vertex="1">
          <mxGeometry x="1448" y="206" width="73" height="40" as="geometry"/>
        </mxCell>
        <mxCell id="76PlY3qgO6dOQQKfIqFN-60" value="api access" style="edgeStyle=orthogonalEdgeStyle;curved=1;rounded=0;orthogonalLoop=1;jettySize=auto;html=1;entryX=1.023;entryY=0.473;entryDx=0;entryDy=0;shadow=0;startArrow=classic;startFill=1;endArrow=none;endFill=0;fontSize=14;fontColor=#000000;entryPerimeter=0;" parent="1" source="76PlY3qgO6dOQQKfIqFN-61" target="76PlY3qgO6dOQQKfIqFN-59" edge="1">
          <mxGeometry x="-0.466" y="9" relative="1" as="geometry">
            <mxPoint as="offset"/>
          </mxGeometry>
        </mxCell>
        <mxCell id="76PlY3qgO6dOQQKfIqFN-91" style="edgeStyle=orthogonalEdgeStyle;curved=1;rounded=0;comic=1;orthogonalLoop=1;jettySize=auto;html=1;startArrow=none;startFill=0;endArrow=classic;endFill=1;entryX=0.75;entryY=0;entryDx=0;entryDy=0;" parent="1" source="3qQfNFwAXlZ41oWte92f-111" target="76PlY3qgO6dOQQKfIqFN-77" edge="1">
          <mxGeometry relative="1" as="geometry"/>
        </mxCell>
        <mxCell id="76PlY3qgO6dOQQKfIqFN-92" style="edgeStyle=orthogonalEdgeStyle;curved=1;rounded=0;comic=1;orthogonalLoop=1;jettySize=auto;html=1;startArrow=none;startFill=0;endArrow=classic;endFill=1;entryX=0.25;entryY=0;entryDx=0;entryDy=0;" parent="1" source="3qQfNFwAXlZ41oWte92f-110" target="76PlY3qgO6dOQQKfIqFN-80" edge="1">
          <mxGeometry relative="1" as="geometry"/>
        </mxCell>
        <mxCell id="76PlY3qgO6dOQQKfIqFN-93" value="session注入" style="edgeStyle=orthogonalEdgeStyle;curved=1;rounded=0;comic=1;orthogonalLoop=1;jettySize=auto;html=1;exitX=1;exitY=0.25;exitDx=0;exitDy=0;entryX=0;entryY=0.75;entryDx=0;entryDy=0;startArrow=none;startFill=0;endArrow=classic;endFill=1;" parent="1" source="76PlY3qgO6dOQQKfIqFN-86" target="76PlY3qgO6dOQQKfIqFN-58" edge="1">
          <mxGeometry relative="1" as="geometry"/>
        </mxCell>
        <mxCell id="76PlY3qgO6dOQQKfIqFN-86" value="token manager&lt;span style=&quot;font-weight: normal&quot;&gt;解析和校验&lt;/span&gt;" style="rounded=1;whiteSpace=wrap;html=1;comic=1;fillColor=#b1ddf0;align=center;verticalAlign=top;fontStyle=1;strokeColor=#10739e;opacity=50;" parent="1" vertex="1">
          <mxGeometry x="1075" y="200" width="255" height="90" as="geometry"/>
        </mxCell>
        <mxCell id="76PlY3qgO6dOQQKfIqFN-89" value="&lt;b&gt;middleware&lt;/b&gt;" style="rounded=1;whiteSpace=wrap;html=1;comic=1;verticalAlign=top;align=left;fillColor=#f8cecc;strokeColor=#b85450;opacity=50;" parent="1" vertex="1">
          <mxGeometry x="1070" y="89" width="151" height="94" as="geometry"/>
        </mxCell>
        <mxCell id="76PlY3qgO6dOQQKfIqFN-90" value="&lt;b&gt;auth sessionToken&lt;/b&gt;" style="rounded=1;whiteSpace=wrap;html=1;comic=1;verticalAlign=middle;align=center;fillColor=#f8cecc;strokeColor=#b85450;opacity=50;" parent="1" vertex="1">
          <mxGeometry x="1081" y="146" width="130" height="31" as="geometry"/>
        </mxCell>
        <mxCell id="76PlY3qgO6dOQQKfIqFN-104" value="通过sessionToken&lt;br&gt;获取数据" style="edgeStyle=orthogonalEdgeStyle;curved=1;rounded=0;comic=1;orthogonalLoop=1;jettySize=auto;html=1;exitX=1;exitY=0.5;exitDx=0;exitDy=0;entryX=0;entryY=0.25;entryDx=0;entryDy=0;startArrow=none;startFill=0;endArrow=classic;endFill=1;strokeWidth=2;fillColor=#008a00;strokeColor=#005700;" parent="1" source="76PlY3qgO6dOQQKfIqFN-96" target="76PlY3qgO6dOQQKfIqFN-89" edge="1">
          <mxGeometry relative="1" as="geometry"/>
        </mxCell>
        <mxCell id="76PlY3qgO6dOQQKfIqFN-96" value="proxy" style="rounded=1;whiteSpace=wrap;html=1;comic=1;fillColor=#b0e3e6;strokeColor=#0e8088;align=center;verticalAlign=middle;fontStyle=1;" parent="1" vertex="1">
          <mxGeometry x="854.5" y="221" width="84" height="79" as="geometry"/>
        </mxCell>
        <mxCell id="76PlY3qgO6dOQQKfIqFN-97" value="&lt;b&gt;thirdAppToken&lt;/b&gt;" style="rounded=1;whiteSpace=wrap;html=1;comic=1;verticalAlign=middle;align=center;fillColor=#d5e8d4;strokeColor=#82b366;" parent="1" vertex="1">
          <mxGeometry x="1316" y="500" width="110" height="40" as="geometry"/>
        </mxCell>
        <mxCell id="76PlY3qgO6dOQQKfIqFN-98" value="&lt;b&gt;userStore&lt;/b&gt;" style="rounded=1;whiteSpace=wrap;html=1;comic=1;verticalAlign=middle;align=center;fillColor=#d5e8d4;strokeColor=#82b366;" parent="1" vertex="1">
          <mxGeometry x="1277.5" y="453" width="105" height="40" as="geometry"/>
        </mxCell>
        <mxCell id="76PlY3qgO6dOQQKfIqFN-106" style="rounded=0;comic=1;orthogonalLoop=1;jettySize=auto;html=1;exitX=0;exitY=0;exitDx=44;exitDy=0;exitPerimeter=0;startArrow=diamondThin;startFill=1;endArrow=diamondThin;endFill=1;entryX=0;entryY=0.75;entryDx=0;entryDy=0;fillColor=#008a00;strokeColor=#005700;strokeWidth=2;" parent="1" source="76PlY3qgO6dOQQKfIqFN-105" target="76PlY3qgO6dOQQKfIqFN-86" edge="1">
          <mxGeometry relative="1" as="geometry">
            <mxPoint x="1011.5" y="290" as="targetPoint"/>
          </mxGeometry>
        </mxCell>
        <mxCell id="76PlY3qgO6dOQQKfIqFN-105" value="1. 本地redis校验sessionToken&lt;br&gt;2. 从raging-hub校验sessionToke并获取对应员工号（用户id）" style="shape=note;whiteSpace=wrap;html=1;backgroundOutline=1;darkOpacity=0.05;rounded=0;comic=1;fillColor=#dae8fc;opacity=40;align=left;strokeColor=#6c8ebf;" parent="1" vertex="1">
          <mxGeometry x="916" y="333" width="201" height="60" as="geometry"/>
        </mxCell>
        <mxCell id="3qQfNFwAXlZ41oWte92f-98" value="sessionToken Mgr" style="rounded=1;whiteSpace=wrap;html=1;fillColor=#b0e3e6;strokeColor=#0e8088;shadow=0;comic=1;align=left;verticalAlign=top;fontStyle=0" parent="1" vertex="1">
          <mxGeometry x="630" y="156" width="106" height="24" as="geometry"/>
        </mxCell>
        <mxCell id="3qQfNFwAXlZ41oWte92f-100" value="validator" style="rounded=1;whiteSpace=wrap;html=1;fillColor=#cce5ff;strokeColor=#36393d;shadow=0;comic=1;" parent="1" vertex="1">
          <mxGeometry x="528.5" y="161" width="80" height="40" as="geometry"/>
        </mxCell>
        <mxCell id="3qQfNFwAXlZ41oWte92f-101" value="accessToken Mgr" style="rounded=1;whiteSpace=wrap;html=1;fillColor=#b0e3e6;strokeColor=#0e8088;shadow=0;comic=1;align=left;verticalAlign=top;fontStyle=0" parent="1" vertex="1">
          <mxGeometry x="630" y="183" width="105" height="24" as="geometry"/>
        </mxCell>
        <mxCell id="3qQfNFwAXlZ41oWte92f-110" value="sessionToken Mgr" style="rounded=1;whiteSpace=wrap;html=1;fillColor=#bac8d3;strokeColor=#23445d;shadow=0;comic=1;align=center;verticalAlign=middle;fontStyle=0;opacity=70;" parent="1" vertex="1">
          <mxGeometry x="1083.5" y="232" width="105" height="46" as="geometry"/>
        </mxCell>
        <mxCell id="3qQfNFwAXlZ41oWte92f-111" value="accessToken Mgr" style="rounded=1;whiteSpace=wrap;html=1;fillColor=#fad7ac;strokeColor=#b46504;shadow=0;comic=1;align=center;verticalAlign=middle;fontStyle=0;opacity=70;" parent="1" vertex="1">
          <mxGeometry x="1214" y="232" width="105" height="46" as="geometry"/>
        </mxCell>
        <mxCell id="DDRdRkafaV5jgmy42ejv-1" value="&lt;b&gt;api router&lt;/b&gt;" style="rounded=1;whiteSpace=wrap;html=1;comic=1;verticalAlign=middle;align=center;fillColor=#f8cecc;strokeColor=#b85450;opacity=50;" parent="1" vertex="1">
          <mxGeometry x="1081" y="112" width="130" height="31" as="geometry"/>
        </mxCell>
        <mxCell id="DDRdRkafaV5jgmy42ejv-20" value="临时session, jwt关键内容" style="rounded=1;whiteSpace=wrap;html=1;align=center;verticalAlign=top;fontSize=16;fontStyle=1" parent="1" vertex="1">
          <mxGeometry x="1737" y="640" width="370" height="180" as="geometry"/>
        </mxCell>
        <mxCell id="DDRdRkafaV5jgmy42ejv-21" value="req: {call_back:xxx, clientId:xxx, scope:xxx}&lt;br&gt;userFrom: wx/ad/ldap&lt;br&gt;userId: 00101" style="rounded=0;whiteSpace=wrap;html=1;fontSize=16;align=left;" parent="1" vertex="1">
          <mxGeometry x="1757" y="675" width="330" height="130" as="geometry"/>
        </mxCell>
        <mxCell id="DDRdRkafaV5jgmy42ejv-22" value="uaa-fronted-proxy 需要的api" style="rounded=1;whiteSpace=wrap;html=1;align=center;verticalAlign=top;fontSize=16;fontStyle=1" parent="1" vertex="1">
          <mxGeometry x="1800" y="363" width="370" height="180" as="geometry"/>
        </mxCell>
        <mxCell id="DDRdRkafaV5jgmy42ejv-23" value="/oauth/authorize 获取code&lt;br&gt;/oauth/token&amp;nbsp; 换取token&lt;br&gt;&lt;br&gt;/session/auth 验证session是否有效" style="rounded=0;whiteSpace=wrap;html=1;fontSize=16;align=left;" parent="1" vertex="1">
          <mxGeometry x="1820" y="400" width="330" height="130" as="geometry"/>
        </mxCell>
        <mxCell id="DjlRrPvjS2F6TvQDkWPC-11" value="uaa-fronted-proxy" style="shape=umlLifeline;perimeter=lifelinePerimeter;whiteSpace=wrap;html=1;container=1;collapsible=0;recursiveResize=0;outlineConnect=0;rounded=0;comic=0;align=center;strokeWidth=1;flipH=1;flipV=0;strokeColor=#10739e;labelBorderColor=none;labelBackgroundColor=none;fillColor=#b1ddf0;" parent="1" vertex="1">
          <mxGeometry x="863" y="699.5" width="125" height="420" as="geometry"/>
        </mxCell>
        <mxCell id="DjlRrPvjS2F6TvQDkWPC-29" value="" style="html=1;points=[];perimeter=orthogonalPerimeter;rounded=0;comic=0;strokeWidth=1;align=center;strokeColor=#000000;labelBorderColor=none;labelBackgroundColor=none;" parent="DjlRrPvjS2F6TvQDkWPC-11" vertex="1">
          <mxGeometry x="58" y="106" width="10" height="264" as="geometry"/>
        </mxCell>
        <mxCell id="DjlRrPvjS2F6TvQDkWPC-14" value="rancher" style="shape=umlLifeline;perimeter=lifelinePerimeter;whiteSpace=wrap;html=1;container=1;collapsible=0;recursiveResize=0;outlineConnect=0;rounded=0;comic=0;align=center;strokeWidth=1;flipH=1;flipV=0;strokeColor=#82b366;labelBorderColor=none;labelBackgroundColor=none;fillColor=#d5e8d4;" parent="1" vertex="1">
          <mxGeometry x="1033.5" y="699.5" width="125" height="420" as="geometry"/>
        </mxCell>
        <mxCell id="DjlRrPvjS2F6TvQDkWPC-39" value="" style="html=1;points=[];perimeter=orthogonalPerimeter;rounded=0;comic=0;strokeWidth=1;align=center;strokeColor=#000000;labelBorderColor=none;labelBackgroundColor=none;" parent="DjlRrPvjS2F6TvQDkWPC-14" vertex="1">
          <mxGeometry x="57.5" y="312.5" width="10" height="30" as="geometry"/>
        </mxCell>
        <mxCell id="DjlRrPvjS2F6TvQDkWPC-24" value="raging-hub" style="shape=umlLifeline;perimeter=lifelinePerimeter;whiteSpace=wrap;html=1;container=1;collapsible=0;recursiveResize=0;outlineConnect=0;rounded=0;comic=0;align=center;strokeWidth=1;flipH=1;flipV=0;strokeColor=#b46504;labelBorderColor=none;labelBackgroundColor=none;fillColor=#fad7ac;" parent="1" vertex="1">
          <mxGeometry x="522" y="699.5" width="125" height="420" as="geometry"/>
        </mxCell>
        <mxCell id="DjlRrPvjS2F6TvQDkWPC-26" value="" style="html=1;points=[];perimeter=orthogonalPerimeter;rounded=0;comic=0;strokeWidth=1;align=center;strokeColor=#000000;labelBorderColor=none;labelBackgroundColor=none;" parent="DjlRrPvjS2F6TvQDkWPC-24" vertex="1">
          <mxGeometry x="58" y="80" width="10" height="300" as="geometry"/>
        </mxCell>
        <mxCell id="DjlRrPvjS2F6TvQDkWPC-27" value="携带sessionToken请求数据" style="rounded=0;orthogonalLoop=1;jettySize=auto;html=1;exitX=1.172;exitY=0.035;exitDx=0;exitDy=0;exitPerimeter=0;" parent="1" source="DjlRrPvjS2F6TvQDkWPC-72" target="DjlRrPvjS2F6TvQDkWPC-26" edge="1">
          <mxGeometry relative="1" as="geometry"/>
        </mxCell>
        <mxCell id="DjlRrPvjS2F6TvQDkWPC-25" value="user" style="shape=umlActor;verticalLabelPosition=bottom;labelBackgroundColor=#ffffff;verticalAlign=top;html=1;outlineConnect=0;opacity=50;align=center;" parent="1" vertex="1">
          <mxGeometry x="153.5" y="760" width="30" height="60" as="geometry"/>
        </mxCell>
        <mxCell id="DjlRrPvjS2F6TvQDkWPC-28" value="携带有效sessionToken到rancher前置代理" style="rounded=0;orthogonalLoop=1;jettySize=auto;html=1;entryX=-0.143;entryY=0.024;entryDx=0;entryDy=0;entryPerimeter=0;" parent="1" source="DjlRrPvjS2F6TvQDkWPC-26" target="DjlRrPvjS2F6TvQDkWPC-29" edge="1">
          <mxGeometry relative="1" as="geometry">
            <mxPoint x="586" y="805" as="sourcePoint"/>
            <mxPoint x="827" y="805" as="targetPoint"/>
          </mxGeometry>
        </mxCell>
        <mxCell id="DjlRrPvjS2F6TvQDkWPC-31" value="sessionToken" style="rounded=0;orthogonalLoop=1;jettySize=auto;html=1;exitX=0.04;exitY=0.445;exitDx=0;exitDy=0;exitPerimeter=0;" parent="1" source="DjlRrPvjS2F6TvQDkWPC-29" target="JFqLKUiRbN9B1VJbT1PJ-3" edge="1">
          <mxGeometry relative="1" as="geometry">
            <mxPoint x="601.5" y="929.8" as="sourcePoint"/>
            <mxPoint x="820" y="890" as="targetPoint"/>
          </mxGeometry>
        </mxCell>
        <mxCell id="DjlRrPvjS2F6TvQDkWPC-32" value="员工号" style="rounded=0;orthogonalLoop=1;jettySize=auto;html=1;entryX=0.12;entryY=0.559;entryDx=0;entryDy=0;entryPerimeter=0;dashed=1;" parent="1" source="JFqLKUiRbN9B1VJbT1PJ-3" target="DjlRrPvjS2F6TvQDkWPC-29" edge="1">
          <mxGeometry relative="1" as="geometry">
            <mxPoint x="681.5" y="989.8" as="sourcePoint"/>
            <mxPoint x="920" y="960" as="targetPoint"/>
          </mxGeometry>
        </mxCell>
        <mxCell id="DjlRrPvjS2F6TvQDkWPC-40" value="携带rancherToken" style="rounded=0;orthogonalLoop=1;jettySize=auto;html=1;exitX=0.967;exitY=0.504;exitDx=0;exitDy=0;exitPerimeter=0;" parent="1" target="DjlRrPvjS2F6TvQDkWPC-36" edge="1">
          <mxGeometry relative="1" as="geometry">
            <mxPoint x="1088.67" y="1000.6600000000001" as="sourcePoint"/>
            <mxPoint x="1088.5" y="992.1099999999999" as="targetPoint"/>
          </mxGeometry>
        </mxCell>
        <mxCell id="DjlRrPvjS2F6TvQDkWPC-41" value="api请求" style="rounded=0;orthogonalLoop=1;jettySize=auto;html=1;" parent="1" source="DjlRrPvjS2F6TvQDkWPC-29" target="DjlRrPvjS2F6TvQDkWPC-39" edge="1">
          <mxGeometry relative="1" as="geometry">
            <mxPoint x="1258.1999999999998" y="1015.78" as="sourcePoint"/>
            <mxPoint x="1257.5" y="1007.8799999999999" as="targetPoint"/>
          </mxGeometry>
        </mxCell>
        <mxCell id="DjlRrPvjS2F6TvQDkWPC-42" value="返回数据" style="rounded=0;orthogonalLoop=1;jettySize=auto;html=1;exitX=0.04;exitY=0.953;exitDx=0;exitDy=0;exitPerimeter=0;dashed=1;" parent="1" source="DjlRrPvjS2F6TvQDkWPC-39" target="DjlRrPvjS2F6TvQDkWPC-29" edge="1">
          <mxGeometry relative="1" as="geometry">
            <mxPoint x="1350" y="1040" as="sourcePoint"/>
            <mxPoint x="1257.5" y="1040.59" as="targetPoint"/>
          </mxGeometry>
        </mxCell>
        <mxCell id="DjlRrPvjS2F6TvQDkWPC-46" value="" style="group" parent="1" vertex="1" connectable="0">
          <mxGeometry x="26.5" y="640" width="200" height="90" as="geometry"/>
        </mxCell>
        <mxCell id="DjlRrPvjS2F6TvQDkWPC-3" value="raging-ui获取rancher数据时序图" style="rounded=0;whiteSpace=wrap;html=1;verticalAlign=top;fontStyle=1" parent="DjlRrPvjS2F6TvQDkWPC-46" vertex="1">
          <mxGeometry width="200" height="90" as="geometry"/>
        </mxCell>
        <mxCell id="DjlRrPvjS2F6TvQDkWPC-4" value="" style="rounded=0;whiteSpace=wrap;html=1;fillColor=#fad7ac;strokeColor=#b46504;" parent="DjlRrPvjS2F6TvQDkWPC-46" vertex="1">
          <mxGeometry x="10" y="31.83333333333337" width="40" height="17.5" as="geometry"/>
        </mxCell>
        <mxCell id="DjlRrPvjS2F6TvQDkWPC-5" value="" style="rounded=0;whiteSpace=wrap;html=1;fillColor=#b1ddf0;strokeColor=#10739e;" parent="DjlRrPvjS2F6TvQDkWPC-46" vertex="1">
          <mxGeometry x="10" y="60.83333333333337" width="40" height="17.5" as="geometry"/>
        </mxCell>
        <mxCell id="DjlRrPvjS2F6TvQDkWPC-6" value="uaa-fronted-proxy" style="text;html=1;resizable=0;points=[];autosize=1;align=left;verticalAlign=top;spacingTop=-4;" parent="DjlRrPvjS2F6TvQDkWPC-46" vertex="1">
          <mxGeometry x="61" y="58.16666666666663" width="110" height="20" as="geometry"/>
        </mxCell>
        <mxCell id="DjlRrPvjS2F6TvQDkWPC-7" value="raging-hub" style="text;html=1;resizable=0;points=[];autosize=1;align=left;verticalAlign=top;spacingTop=-4;" parent="DjlRrPvjS2F6TvQDkWPC-46" vertex="1">
          <mxGeometry x="61" y="30.66666666666663" width="70" height="20" as="geometry"/>
        </mxCell>
        <mxCell id="DjlRrPvjS2F6TvQDkWPC-48" value="" style="group" parent="1" vertex="1" connectable="0">
          <mxGeometry x="30" y="1169" width="200" height="90" as="geometry"/>
        </mxCell>
        <mxCell id="DjlRrPvjS2F6TvQDkWPC-49" value="用户通过web直接访问rancher" style="rounded=0;whiteSpace=wrap;html=1;verticalAlign=top;fontStyle=1" parent="DjlRrPvjS2F6TvQDkWPC-48" vertex="1">
          <mxGeometry width="200" height="90" as="geometry"/>
        </mxCell>
        <mxCell id="DjlRrPvjS2F6TvQDkWPC-50" value="" style="rounded=0;whiteSpace=wrap;html=1;fillColor=#fad7ac;strokeColor=#b46504;" parent="DjlRrPvjS2F6TvQDkWPC-48" vertex="1">
          <mxGeometry x="10" y="31.83333333333337" width="40" height="17.5" as="geometry"/>
        </mxCell>
        <mxCell id="DjlRrPvjS2F6TvQDkWPC-51" value="" style="rounded=0;whiteSpace=wrap;html=1;fillColor=#b1ddf0;strokeColor=#10739e;" parent="DjlRrPvjS2F6TvQDkWPC-48" vertex="1">
          <mxGeometry x="10" y="60.83333333333337" width="40" height="17.5" as="geometry"/>
        </mxCell>
        <mxCell id="DjlRrPvjS2F6TvQDkWPC-52" value="uaa-fronted-proxy" style="text;html=1;resizable=0;points=[];autosize=1;align=left;verticalAlign=top;spacingTop=-4;" parent="DjlRrPvjS2F6TvQDkWPC-48" vertex="1">
          <mxGeometry x="61" y="58.16666666666663" width="110" height="20" as="geometry"/>
        </mxCell>
        <mxCell id="DjlRrPvjS2F6TvQDkWPC-53" value="raging-hub" style="text;html=1;resizable=0;points=[];autosize=1;align=left;verticalAlign=top;spacingTop=-4;" parent="DjlRrPvjS2F6TvQDkWPC-48" vertex="1">
          <mxGeometry x="61" y="30.66666666666663" width="70" height="20" as="geometry"/>
        </mxCell>
        <mxCell id="DjlRrPvjS2F6TvQDkWPC-58" value="uaa-fronted-proxy" style="shape=umlLifeline;perimeter=lifelinePerimeter;whiteSpace=wrap;html=1;container=1;collapsible=0;recursiveResize=0;outlineConnect=0;rounded=0;comic=0;align=center;strokeWidth=1;flipH=1;flipV=0;strokeColor=#10739e;labelBorderColor=none;labelBackgroundColor=none;fillColor=#b1ddf0;" parent="1" vertex="1">
          <mxGeometry x="545" y="1230" width="125" height="400" as="geometry"/>
        </mxCell>
        <mxCell id="DjlRrPvjS2F6TvQDkWPC-59" value="" style="html=1;points=[];perimeter=orthogonalPerimeter;rounded=0;comic=0;strokeWidth=1;align=center;strokeColor=#000000;labelBorderColor=none;labelBackgroundColor=none;" parent="DjlRrPvjS2F6TvQDkWPC-58" vertex="1">
          <mxGeometry x="58" y="91" width="10" height="259" as="geometry"/>
        </mxCell>
        <mxCell id="JFqLKUiRbN9B1VJbT1PJ-12" value="alt" style="shape=umlFrame;whiteSpace=wrap;html=1;width=60;height=20;" vertex="1" parent="DjlRrPvjS2F6TvQDkWPC-58">
          <mxGeometry x="32" y="110" width="509" height="260" as="geometry"/>
        </mxCell>
        <mxCell id="DjlRrPvjS2F6TvQDkWPC-71" value="浏览器" style="shape=umlLifeline;perimeter=lifelinePerimeter;whiteSpace=wrap;html=1;container=1;collapsible=0;recursiveResize=0;outlineConnect=0;rounded=0;comic=0;align=center;strokeWidth=1;flipH=1;flipV=0;labelBorderColor=none;labelBackgroundColor=none;fillColor=none;" parent="1" vertex="1">
          <mxGeometry x="351" y="699.5" width="125" height="420" as="geometry"/>
        </mxCell>
        <mxCell id="DjlRrPvjS2F6TvQDkWPC-72" value="" style="html=1;points=[];perimeter=orthogonalPerimeter;rounded=0;comic=0;strokeWidth=1;align=center;strokeColor=#000000;labelBorderColor=none;labelBackgroundColor=none;" parent="DjlRrPvjS2F6TvQDkWPC-71" vertex="1">
          <mxGeometry x="58" y="81" width="10" height="300" as="geometry"/>
        </mxCell>
        <mxCell id="DjlRrPvjS2F6TvQDkWPC-76" value="返回数据" style="rounded=0;orthogonalLoop=1;jettySize=auto;html=1;dashed=1;" parent="1" source="DjlRrPvjS2F6TvQDkWPC-26" edge="1">
          <mxGeometry relative="1" as="geometry">
            <mxPoint x="604.3600000000001" y="1088.66" as="sourcePoint"/>
            <mxPoint x="419" y="1059.9999999999998" as="targetPoint"/>
          </mxGeometry>
        </mxCell>
        <mxCell id="DjlRrPvjS2F6TvQDkWPC-77" value="" style="rounded=0;orthogonalLoop=1;jettySize=auto;html=1;exitX=1;exitY=0.3333333333333333;exitDx=0;exitDy=0;exitPerimeter=0;" parent="1" source="DjlRrPvjS2F6TvQDkWPC-25" target="DjlRrPvjS2F6TvQDkWPC-72" edge="1">
          <mxGeometry relative="1" as="geometry">
            <mxPoint x="429" y="798.0250000000001" as="sourcePoint"/>
            <mxPoint x="588" y="798.0250000000001" as="targetPoint"/>
          </mxGeometry>
        </mxCell>
        <mxCell id="DjlRrPvjS2F6TvQDkWPC-81" value="浏览器" style="shape=umlLifeline;perimeter=lifelinePerimeter;whiteSpace=wrap;html=1;container=1;collapsible=0;recursiveResize=0;outlineConnect=0;rounded=0;comic=0;align=center;strokeWidth=1;flipH=1;flipV=0;labelBorderColor=none;labelBackgroundColor=none;" parent="1" vertex="1">
          <mxGeometry x="347" y="1230" width="125" height="400" as="geometry"/>
        </mxCell>
        <mxCell id="DjlRrPvjS2F6TvQDkWPC-82" value="" style="html=1;points=[];perimeter=orthogonalPerimeter;rounded=0;comic=0;strokeWidth=1;align=center;strokeColor=#000000;labelBorderColor=none;labelBackgroundColor=none;" parent="DjlRrPvjS2F6TvQDkWPC-81" vertex="1">
          <mxGeometry x="58" y="81" width="10" height="249" as="geometry"/>
        </mxCell>
        <mxCell id="DjlRrPvjS2F6TvQDkWPC-84" value="user" style="shape=umlActor;verticalLabelPosition=bottom;labelBackgroundColor=#ffffff;verticalAlign=top;html=1;outlineConnect=0;opacity=50;align=center;" parent="1" vertex="1">
          <mxGeometry x="166.5" y="1298" width="30" height="60" as="geometry"/>
        </mxCell>
        <mxCell id="DjlRrPvjS2F6TvQDkWPC-85" value="" style="rounded=0;orthogonalLoop=1;jettySize=auto;html=1;exitX=1;exitY=0.3333333333333333;exitDx=0;exitDy=0;exitPerimeter=0;" parent="1" source="DjlRrPvjS2F6TvQDkWPC-84" target="DjlRrPvjS2F6TvQDkWPC-82" edge="1">
          <mxGeometry relative="1" as="geometry">
            <mxPoint x="193.5" y="790" as="sourcePoint"/>
            <mxPoint x="419" y="790" as="targetPoint"/>
          </mxGeometry>
        </mxCell>
        <mxCell id="DjlRrPvjS2F6TvQDkWPC-86" value="携带sessionToken请求数据" style="rounded=0;orthogonalLoop=1;jettySize=auto;html=1;entryX=0.105;entryY=0.028;entryDx=0;entryDy=0;entryPerimeter=0;" parent="1" source="DjlRrPvjS2F6TvQDkWPC-82" target="DjlRrPvjS2F6TvQDkWPC-59" edge="1">
          <mxGeometry relative="1" as="geometry">
            <mxPoint x="429" y="798.0250000000001" as="sourcePoint"/>
            <mxPoint x="588" y="798.0250000000001" as="targetPoint"/>
          </mxGeometry>
        </mxCell>
        <mxCell id="DjlRrPvjS2F6TvQDkWPC-88" value="rancher" style="shape=umlLifeline;perimeter=lifelinePerimeter;whiteSpace=wrap;html=1;container=1;collapsible=0;recursiveResize=0;outlineConnect=0;rounded=0;comic=0;align=center;strokeWidth=1;flipH=1;flipV=0;strokeColor=#82b366;labelBorderColor=none;labelBackgroundColor=none;fillColor=#d5e8d4;" parent="1" vertex="1">
          <mxGeometry x="925.5" y="1230" width="125" height="400" as="geometry"/>
        </mxCell>
        <mxCell id="DjlRrPvjS2F6TvQDkWPC-89" value="" style="html=1;points=[];perimeter=orthogonalPerimeter;rounded=0;comic=0;strokeWidth=1;align=center;strokeColor=#000000;labelBorderColor=none;labelBackgroundColor=none;" parent="DjlRrPvjS2F6TvQDkWPC-88" vertex="1">
          <mxGeometry x="57" y="148" width="10" height="30" as="geometry"/>
        </mxCell>
        <mxCell id="JFqLKUiRbN9B1VJbT1PJ-19" value="" style="html=1;points=[];perimeter=orthogonalPerimeter;rounded=0;comic=0;strokeWidth=1;align=center;strokeColor=#000000;labelBorderColor=none;labelBackgroundColor=none;" vertex="1" parent="DjlRrPvjS2F6TvQDkWPC-88">
          <mxGeometry x="57.5" y="280" width="10" height="30" as="geometry"/>
        </mxCell>
        <mxCell id="DjlRrPvjS2F6TvQDkWPC-94" value="携带rancherToken" style="rounded=0;orthogonalLoop=1;jettySize=auto;html=1;exitX=0.967;exitY=0.504;exitDx=0;exitDy=0;exitPerimeter=0;" parent="1" target="DjlRrPvjS2F6TvQDkWPC-93" edge="1">
          <mxGeometry relative="1" as="geometry">
            <mxPoint x="837.1699999999998" y="1366.66" as="sourcePoint"/>
            <mxPoint x="837" y="1358.11" as="targetPoint"/>
          </mxGeometry>
        </mxCell>
        <mxCell id="DjlRrPvjS2F6TvQDkWPC-99" value="/oauth/authorize" style="shape=umlLifeline;perimeter=lifelinePerimeter;whiteSpace=wrap;html=1;container=1;collapsible=0;recursiveResize=0;outlineConnect=0;rounded=0;comic=0;align=center;strokeWidth=1;flipH=0;flipV=0;strokeColor=#b46504;labelBorderColor=none;labelBackgroundColor=none;fillColor=#fad7ac;" parent="1" vertex="1">
          <mxGeometry x="715.5" y="1660" width="125" height="400" as="geometry"/>
        </mxCell>
        <mxCell id="DjlRrPvjS2F6TvQDkWPC-118" value="" style="html=1;points=[];perimeter=orthogonalPerimeter;rounded=0;comic=0;strokeWidth=1;align=center;strokeColor=#000000;labelBorderColor=none;labelBackgroundColor=none;" parent="DjlRrPvjS2F6TvQDkWPC-99" vertex="1">
          <mxGeometry x="58" y="110" width="10" height="50" as="geometry"/>
        </mxCell>
        <mxCell id="DjlRrPvjS2F6TvQDkWPC-101" value="/oauth/token" style="shape=umlLifeline;perimeter=lifelinePerimeter;whiteSpace=wrap;html=1;container=1;collapsible=0;recursiveResize=0;outlineConnect=0;rounded=0;comic=0;align=center;strokeWidth=1;flipH=0;flipV=0;strokeColor=#b46504;labelBorderColor=none;labelBackgroundColor=none;fillColor=#fad7ac;" parent="1" vertex="1">
          <mxGeometry x="902" y="1660" width="125" height="400" as="geometry"/>
        </mxCell>
        <mxCell id="DjlRrPvjS2F6TvQDkWPC-124" value="" style="html=1;points=[];perimeter=orthogonalPerimeter;rounded=0;comic=0;strokeWidth=1;align=center;strokeColor=#000000;labelBorderColor=none;labelBackgroundColor=none;" parent="DjlRrPvjS2F6TvQDkWPC-101" vertex="1">
          <mxGeometry x="57.5" y="217.5" width="10" height="53" as="geometry"/>
        </mxCell>
        <mxCell id="DjlRrPvjS2F6TvQDkWPC-103" value="uaa-fronted-proxy" style="shape=umlLifeline;perimeter=lifelinePerimeter;whiteSpace=wrap;html=1;container=1;collapsible=0;recursiveResize=0;outlineConnect=0;rounded=0;comic=0;align=center;strokeWidth=1;flipH=0;flipV=0;strokeColor=#10739e;labelBorderColor=none;labelBackgroundColor=none;fillColor=#b1ddf0;" parent="1" vertex="1">
          <mxGeometry x="533" y="1660" width="125" height="400" as="geometry"/>
        </mxCell>
        <mxCell id="DjlRrPvjS2F6TvQDkWPC-104" value="" style="html=1;points=[];perimeter=orthogonalPerimeter;rounded=0;comic=0;strokeWidth=1;align=center;strokeColor=#000000;labelBorderColor=none;labelBackgroundColor=none;" parent="DjlRrPvjS2F6TvQDkWPC-103" vertex="1">
          <mxGeometry x="57.5" y="103.5" width="10" height="174" as="geometry"/>
        </mxCell>
        <mxCell id="DjlRrPvjS2F6TvQDkWPC-105" value="" style="group" parent="1" vertex="1" connectable="0">
          <mxGeometry x="30" y="1610" width="200" height="90" as="geometry"/>
        </mxCell>
        <mxCell id="DjlRrPvjS2F6TvQDkWPC-106" value="单点登录用户认证时序图" style="rounded=0;whiteSpace=wrap;html=1;verticalAlign=top;fontStyle=1" parent="DjlRrPvjS2F6TvQDkWPC-105" vertex="1">
          <mxGeometry width="200" height="90" as="geometry"/>
        </mxCell>
        <mxCell id="DjlRrPvjS2F6TvQDkWPC-107" value="" style="rounded=0;whiteSpace=wrap;html=1;fillColor=#fad7ac;strokeColor=#b46504;" parent="DjlRrPvjS2F6TvQDkWPC-105" vertex="1">
          <mxGeometry x="10" y="31.83333333333337" width="40" height="17.5" as="geometry"/>
        </mxCell>
        <mxCell id="DjlRrPvjS2F6TvQDkWPC-108" value="" style="rounded=0;whiteSpace=wrap;html=1;fillColor=#b1ddf0;strokeColor=#10739e;" parent="DjlRrPvjS2F6TvQDkWPC-105" vertex="1">
          <mxGeometry x="10" y="60.83333333333337" width="40" height="17.5" as="geometry"/>
        </mxCell>
        <mxCell id="DjlRrPvjS2F6TvQDkWPC-109" value="uaa-fronted-proxy" style="text;html=1;resizable=0;points=[];autosize=1;align=left;verticalAlign=top;spacingTop=-4;" parent="DjlRrPvjS2F6TvQDkWPC-105" vertex="1">
          <mxGeometry x="61" y="58.16666666666663" width="110" height="20" as="geometry"/>
        </mxCell>
        <mxCell id="DjlRrPvjS2F6TvQDkWPC-110" value="raging-hub" style="text;html=1;resizable=0;points=[];autosize=1;align=left;verticalAlign=top;spacingTop=-4;" parent="DjlRrPvjS2F6TvQDkWPC-105" vertex="1">
          <mxGeometry x="61" y="30.66666666666663" width="70" height="20" as="geometry"/>
        </mxCell>
        <mxCell id="DjlRrPvjS2F6TvQDkWPC-111" value="浏览器" style="shape=umlLifeline;perimeter=lifelinePerimeter;whiteSpace=wrap;html=1;container=1;collapsible=0;recursiveResize=0;outlineConnect=0;rounded=0;comic=0;align=center;strokeWidth=1;flipH=0;flipV=0;labelBorderColor=none;labelBackgroundColor=none;" parent="1" vertex="1">
          <mxGeometry x="346.5" y="1660" width="125" height="400" as="geometry"/>
        </mxCell>
        <mxCell id="DjlRrPvjS2F6TvQDkWPC-112" value="" style="html=1;points=[];perimeter=orthogonalPerimeter;rounded=0;comic=0;strokeWidth=1;align=center;strokeColor=#000000;labelBorderColor=none;labelBackgroundColor=none;" parent="DjlRrPvjS2F6TvQDkWPC-111" vertex="1">
          <mxGeometry x="58" y="81" width="10" height="219" as="geometry"/>
        </mxCell>
        <mxCell id="DjlRrPvjS2F6TvQDkWPC-113" value="user" style="shape=umlActor;verticalLabelPosition=bottom;labelBackgroundColor=#ffffff;verticalAlign=top;html=1;outlineConnect=0;opacity=50;align=center;" parent="1" vertex="1">
          <mxGeometry x="168.5" y="1723.5" width="30" height="60" as="geometry"/>
        </mxCell>
        <mxCell id="DjlRrPvjS2F6TvQDkWPC-114" value="" style="rounded=0;orthogonalLoop=1;jettySize=auto;html=1;exitX=1;exitY=0.3333333333333333;exitDx=0;exitDy=0;exitPerimeter=0;" parent="1" source="DjlRrPvjS2F6TvQDkWPC-113" target="DjlRrPvjS2F6TvQDkWPC-112" edge="1">
          <mxGeometry relative="1" as="geometry">
            <mxPoint x="206.5" y="1328" as="sourcePoint"/>
            <mxPoint x="414.5" y="1328" as="targetPoint"/>
          </mxGeometry>
        </mxCell>
        <mxCell id="DjlRrPvjS2F6TvQDkWPC-115" value="请求数据" style="rounded=0;orthogonalLoop=1;jettySize=auto;html=1;exitX=1.002;exitY=0.117;exitDx=0;exitDy=0;exitPerimeter=0;" parent="1" source="DjlRrPvjS2F6TvQDkWPC-112" target="DjlRrPvjS2F6TvQDkWPC-104" edge="1">
          <mxGeometry relative="1" as="geometry">
            <mxPoint x="424.5" y="1347.232" as="sourcePoint"/>
            <mxPoint x="614.0499999999997" y="1347.232" as="targetPoint"/>
          </mxGeometry>
        </mxCell>
        <mxCell id="DjlRrPvjS2F6TvQDkWPC-121" value="重定向到uaa认证" style="rounded=0;orthogonalLoop=1;jettySize=auto;html=1;exitX=1.229;exitY=0.079;exitDx=0;exitDy=0;exitPerimeter=0;" parent="1" source="DjlRrPvjS2F6TvQDkWPC-104" target="DjlRrPvjS2F6TvQDkWPC-118" edge="1">
          <mxGeometry relative="1" as="geometry">
            <mxPoint x="789.0699999999999" y="1774.38" as="sourcePoint"/>
            <mxPoint x="787.5" y="1785.6800000000003" as="targetPoint"/>
          </mxGeometry>
        </mxCell>
        <mxCell id="DjlRrPvjS2F6TvQDkWPC-123" value="返回code" style="rounded=0;orthogonalLoop=1;jettySize=auto;html=1;entryX=1.091;entryY=0.336;entryDx=0;entryDy=0;entryPerimeter=0;" parent="1" source="DjlRrPvjS2F6TvQDkWPC-118" edge="1" target="DjlRrPvjS2F6TvQDkWPC-104">
          <mxGeometry relative="1" as="geometry">
            <mxPoint x="799.0699999999999" y="1784.3799999999997" as="sourcePoint"/>
            <mxPoint x="603" y="1870" as="targetPoint"/>
          </mxGeometry>
        </mxCell>
        <mxCell id="DjlRrPvjS2F6TvQDkWPC-125" value="请求accessTokentoken" style="rounded=0;orthogonalLoop=1;jettySize=auto;html=1;exitX=0.884;exitY=0.661;exitDx=0;exitDy=0;exitPerimeter=0;" parent="1" source="DjlRrPvjS2F6TvQDkWPC-104" target="DjlRrPvjS2F6TvQDkWPC-124" edge="1">
          <mxGeometry relative="1" as="geometry">
            <mxPoint x="605.55" y="1874.4" as="sourcePoint"/>
            <mxPoint x="612.8299999999997" y="1874.8400000000001" as="targetPoint"/>
          </mxGeometry>
        </mxCell>
        <mxCell id="DjlRrPvjS2F6TvQDkWPC-126" value="返回accessToken" style="rounded=0;orthogonalLoop=1;jettySize=auto;html=1;entryX=1.017;entryY=0.86;entryDx=0;entryDy=0;entryPerimeter=0;" parent="1" source="DjlRrPvjS2F6TvQDkWPC-124" target="DjlRrPvjS2F6TvQDkWPC-104" edge="1">
          <mxGeometry relative="1" as="geometry">
            <mxPoint x="974" y="1880" as="sourcePoint"/>
            <mxPoint x="602.6000000000001" y="1915.2999999999997" as="targetPoint"/>
          </mxGeometry>
        </mxCell>
        <mxCell id="DjlRrPvjS2F6TvQDkWPC-127" value="返回sessionToken，登录" style="rounded=0;orthogonalLoop=1;jettySize=auto;html=1;exitX=0.007;exitY=0.965;exitDx=0;exitDy=0;exitPerimeter=0;" parent="1" target="DjlRrPvjS2F6TvQDkWPC-112" edge="1">
          <mxGeometry relative="1" as="geometry">
            <mxPoint x="591.0700000000002" y="1936.5" as="sourcePoint"/>
            <mxPoint x="612.6000000000001" y="1929.005" as="targetPoint"/>
          </mxGeometry>
        </mxCell>
        <mxCell id="JFqLKUiRbN9B1VJbT1PJ-1" value="/raging/user" style="shape=umlLifeline;perimeter=lifelinePerimeter;whiteSpace=wrap;html=1;container=1;collapsible=0;recursiveResize=0;outlineConnect=0;rounded=0;comic=0;align=center;strokeWidth=1;flipH=1;flipV=0;strokeColor=#b46504;labelBorderColor=none;labelBackgroundColor=none;fillColor=#fad7ac;" vertex="1" parent="1">
          <mxGeometry x="692" y="699.5" width="125" height="420" as="geometry"/>
        </mxCell>
        <mxCell id="JFqLKUiRbN9B1VJbT1PJ-3" value="" style="html=1;points=[];perimeter=orthogonalPerimeter;rounded=0;comic=0;strokeWidth=1;align=center;strokeColor=#000000;labelBorderColor=none;labelBackgroundColor=none;" vertex="1" parent="JFqLKUiRbN9B1VJbT1PJ-1">
          <mxGeometry x="57.5" y="220.5" width="10" height="39" as="geometry"/>
        </mxCell>
        <mxCell id="JFqLKUiRbN9B1VJbT1PJ-7" value="返回数据" style="rounded=0;orthogonalLoop=1;jettySize=auto;html=1;entryX=0.969;entryY=0.919;entryDx=0;entryDy=0;entryPerimeter=0;dashed=1;" edge="1" parent="1" source="DjlRrPvjS2F6TvQDkWPC-29" target="DjlRrPvjS2F6TvQDkWPC-26">
          <mxGeometry relative="1" as="geometry">
            <mxPoint x="921" y="1076" as="sourcePoint"/>
            <mxPoint x="615" y="1076" as="targetPoint"/>
          </mxGeometry>
        </mxCell>
        <mxCell id="JFqLKUiRbN9B1VJbT1PJ-8" value="/raging/user" style="shape=umlLifeline;perimeter=lifelinePerimeter;whiteSpace=wrap;html=1;container=1;collapsible=0;recursiveResize=0;outlineConnect=0;rounded=0;comic=0;align=center;strokeWidth=1;flipH=1;flipV=0;strokeColor=#b46504;labelBorderColor=none;labelBackgroundColor=none;fillColor=#fad7ac;" vertex="1" parent="1">
          <mxGeometry x="747" y="1230" width="124" height="400" as="geometry"/>
        </mxCell>
        <mxCell id="JFqLKUiRbN9B1VJbT1PJ-13" value="[sessionToken有效]" style="text;html=1;resizable=0;points=[];autosize=1;align=left;verticalAlign=top;spacingTop=-4;" vertex="1" parent="JFqLKUiRbN9B1VJbT1PJ-8">
          <mxGeometry x="-146.5" y="131" width="120" height="20" as="geometry"/>
        </mxCell>
        <mxCell id="JFqLKUiRbN9B1VJbT1PJ-16" value="" style="html=1;points=[];perimeter=orthogonalPerimeter;rounded=0;comic=0;strokeWidth=1;align=center;strokeColor=#000000;labelBorderColor=none;labelBackgroundColor=none;" vertex="1" parent="JFqLKUiRbN9B1VJbT1PJ-8">
          <mxGeometry x="57" y="230" width="10" height="30" as="geometry"/>
        </mxCell>
        <mxCell id="JFqLKUiRbN9B1VJbT1PJ-10" value="请求数据" style="rounded=0;orthogonalLoop=1;jettySize=auto;html=1;exitX=1.047;exitY=0.231;exitDx=0;exitDy=0;exitPerimeter=0;" edge="1" parent="1" source="DjlRrPvjS2F6TvQDkWPC-59" target="DjlRrPvjS2F6TvQDkWPC-89">
          <mxGeometry relative="1" as="geometry">
            <mxPoint x="1016.7" y="1391.7800000000002" as="sourcePoint"/>
            <mxPoint x="804.7099999999998" y="1401.3" as="targetPoint"/>
          </mxGeometry>
        </mxCell>
        <mxCell id="JFqLKUiRbN9B1VJbT1PJ-14" value="返回数据" style="rounded=0;orthogonalLoop=1;jettySize=auto;html=1;exitX=0.164;exitY=0.933;exitDx=0;exitDy=0;exitPerimeter=0;dashed=1;" edge="1" parent="1" source="DjlRrPvjS2F6TvQDkWPC-89" target="DjlRrPvjS2F6TvQDkWPC-59">
          <mxGeometry relative="1" as="geometry">
            <mxPoint x="624.4300000000001" y="1392.596" as="sourcePoint"/>
            <mxPoint x="992.5" y="1392.596" as="targetPoint"/>
          </mxGeometry>
        </mxCell>
        <mxCell id="JFqLKUiRbN9B1VJbT1PJ-15" value="[sessionToken无效]" style="text;html=1;resizable=0;points=[];autosize=1;align=left;verticalAlign=top;spacingTop=-4;" vertex="1" parent="1">
          <mxGeometry x="600" y="1430" width="120" height="20" as="geometry"/>
        </mxCell>
        <mxCell id="JFqLKUiRbN9B1VJbT1PJ-17" value="sessionToken" style="rounded=0;orthogonalLoop=1;jettySize=auto;html=1;exitX=1.033;exitY=0.542;exitDx=0;exitDy=0;exitPerimeter=0;" edge="1" parent="1" source="DjlRrPvjS2F6TvQDkWPC-59" target="JFqLKUiRbN9B1VJbT1PJ-16">
          <mxGeometry relative="1" as="geometry">
            <mxPoint x="424.5" y="1336.5720000000001" as="sourcePoint"/>
            <mxPoint x="614.05" y="1336.5720000000001" as="targetPoint"/>
          </mxGeometry>
        </mxCell>
        <mxCell id="JFqLKUiRbN9B1VJbT1PJ-18" value="员工号" style="rounded=0;orthogonalLoop=1;jettySize=auto;html=1;entryX=0.96;entryY=0.642;entryDx=0;entryDy=0;entryPerimeter=0;" edge="1" parent="1" source="JFqLKUiRbN9B1VJbT1PJ-16" target="DjlRrPvjS2F6TvQDkWPC-59">
          <mxGeometry relative="1" as="geometry">
            <mxPoint x="622.8600000000001" y="1476.668" as="sourcePoint"/>
            <mxPoint x="660" y="1550" as="targetPoint"/>
          </mxGeometry>
        </mxCell>
        <mxCell id="JFqLKUiRbN9B1VJbT1PJ-20" value="请求数据" style="rounded=0;orthogonalLoop=1;jettySize=auto;html=1;exitX=1.067;exitY=0.737;exitDx=0;exitDy=0;exitPerimeter=0;" edge="1" parent="1" source="DjlRrPvjS2F6TvQDkWPC-59" target="JFqLKUiRbN9B1VJbT1PJ-19">
          <mxGeometry relative="1" as="geometry">
            <mxPoint x="623.47" y="1390.8290000000002" as="sourcePoint"/>
            <mxPoint x="992.5" y="1390.8290000000002" as="targetPoint"/>
          </mxGeometry>
        </mxCell>
        <mxCell id="JFqLKUiRbN9B1VJbT1PJ-22" value="返回数据" style="rounded=0;orthogonalLoop=1;jettySize=auto;html=1;dashed=1;entryX=1.129;entryY=0.842;entryDx=0;entryDy=0;entryPerimeter=0;" edge="1" parent="1" source="JFqLKUiRbN9B1VJbT1PJ-19" target="DjlRrPvjS2F6TvQDkWPC-59">
          <mxGeometry relative="1" as="geometry">
            <mxPoint x="1010" y="1510" as="sourcePoint"/>
            <mxPoint x="623" y="1415.9900000000002" as="targetPoint"/>
          </mxGeometry>
        </mxCell>
        <mxCell id="JFqLKUiRbN9B1VJbT1PJ-23" value="返回数据" style="rounded=0;orthogonalLoop=1;jettySize=auto;html=1;dashed=1;entryX=1;entryY=0.951;entryDx=0;entryDy=0;entryPerimeter=0;" edge="1" parent="1" source="DjlRrPvjS2F6TvQDkWPC-59" target="DjlRrPvjS2F6TvQDkWPC-82">
          <mxGeometry relative="1" as="geometry">
            <mxPoint x="594.6400000000001" y="1519.9900000000002" as="sourcePoint"/>
            <mxPoint x="440" y="1520" as="targetPoint"/>
          </mxGeometry>
        </mxCell>
      </root>
    </mxGraphModel>
  </diagram>
</mxfile>
